<svg width="16" height="18" viewBox="0 0 16 18"  xmlns="http://www.w3.org/2000/svg">
<path d="M2 18C1.45 18 0.979002 17.804 0.587002 17.412C0.195002 17.02 -0.000664969 16.5493 1.69779e-06 16V7C1.69779e-06 6.68333 0.0710015 6.38333 0.213002 6.1C0.355002 5.81667 0.550669 5.58333 0.800002 5.4L6.8 0.9C6.98334 0.766667 7.175 0.666667 7.375 0.6C7.575 0.533333 7.78334 0.5 8 0.5C8.21667 0.5 8.425 0.533333 8.625 0.6C8.825 0.666667 9.01667 0.766667 9.2 0.9L15.2 5.4C15.45 5.58333 15.646 5.81667 15.788 6.1C15.93 6.38333 16.0007 6.68333 16 7V16C16 16.55 15.804 17.021 15.412 17.413C15.02 17.805 14.5493 18.0007 14 18H10V11H6V18H2Z" />
</svg>
