<svg width="18" height="18" viewBox="0 0 22 22" xmlns="http://www.w3.org/2000/svg">
<path d="M15.4282 16.225C15.1987 15.9602 15.0839 15.6599 15.0839 15.3242C15.0839 14.9885 15.1987 14.7082 15.4282 14.4833L17.7439 12.2222H8.76244C8.40777 12.2222 8.11026 12.1049 7.86992 11.8702C7.62958 11.6356 7.50983 11.3455 7.51066 11C7.51066 10.6537 7.63083 10.3632 7.87118 10.1286C8.11152 9.89389 8.4086 9.77696 8.76244 9.77778H17.7439L15.4282 7.51667C15.1778 7.27222 15.0526 6.98174 15.0526 6.64522C15.0526 6.3087 15.1778 6.01863 15.4282 5.775C15.6576 5.53056 15.9447 5.40833 16.2894 5.40833C16.634 5.40833 16.9207 5.52037 17.1493 5.74444L21.6557 10.1444C21.7809 10.2667 21.8698 10.3991 21.9224 10.5417C21.9749 10.6843 22.0008 10.837 22 11C22 11.163 21.9741 11.3157 21.9224 11.4583C21.8706 11.6009 21.7818 11.7333 21.6557 11.8556L17.1493 16.2556C16.8781 16.5204 16.5806 16.6377 16.2568 16.6076C15.933 16.5774 15.6568 16.4499 15.4282 16.225ZM2.50356 22C1.81508 22 1.22549 21.7604 0.734795 21.2813C0.244098 20.8022 -0.000832393 20.227 2.12526e-06 19.5556V2.44445C2.12526e-06 1.77222 0.24535 1.19656 0.736047 0.717446C1.22674 0.238335 1.81591 -0.000812739 2.50356 2.07508e-06H10.0142C10.3689 2.07508e-06 10.6664 0.117336 10.9067 0.352002C11.1471 0.586669 11.2668 0.876743 11.266 1.22222C11.266 1.56852 11.1458 1.859 10.9055 2.09367C10.6651 2.32833 10.3681 2.44526 10.0142 2.44445H2.50356V19.5556H10.0142C10.3689 19.5556 10.6664 19.6729 10.9067 19.9076C11.1471 20.1422 11.2668 20.4323 11.266 20.7778C11.266 21.1241 11.1458 21.4146 10.9055 21.6492C10.6651 21.8839 10.3681 22.0008 10.0142 22H2.50356Z" />
</svg>
